<svg width="23" height="34" viewBox="0 0 23 34" fill="none" xmlns="http://www.w3.org/2000/svg">
<path d="M19.992 16.1271C19.737 15.8721 19.439 15.6571 19.117 15.4911L18.717 14.1351L10.705 14.0791L10.398 15.1701C9.93101 15.2651 9.357 15.5591 9.005 15.8881L5.394 11.9341C4.577 12.2981 4.005 13.1141 4.005 14.0671V15.0271L0.00500488 19.1931L0.0210047 21.3811L10.005 32.1101C10.005 32.1101 20.523 16.8221 20.548 16.8521C20.421 16.6281 20.037 16.1491 19.992 16.1271Z" fill="#EF9645"/>
<path d="M17.581 15.1111H11C10.792 15.1111 10.589 15.1321 10.393 15.1721L10.32 14.8941L7.047 2.43006C7.047 2.43006 6.631 0.473056 8.587 0.0580562C10.543 -0.357944 10.959 1.59806 10.959 1.59806L14.056 13.1671C14.502 13.1911 14.934 13.2301 15.361 13.2741L17.422 2.76206C17.422 2.76206 17.61 0.771056 19.602 0.958056C21.593 1.14606 21.405 3.13706 21.405 3.13706L19.34 14.2981L19.119 15.4921C18.655 15.2571 18.137 15.1111 17.581 15.1111ZM1.916 13.1111H2.084C3.143 13.1111 4 13.9691 4 15.0281V19.1941C4 20.2531 3.143 21.1111 2.084 21.1111H1.916C0.857 21.1111 0 20.2531 0 19.1941V15.0281C0 13.9691 0.857 13.1111 1.916 13.1111ZM8.834 16.0711L8.778 16.1331C8.304 16.6621 8 17.3441 8 18.1111C8 18.1741 8.013 18.2341 8.018 18.2961C8.062 18.9741 8.326 19.5881 8.746 20.0701C8.675 20.1991 8.583 20.3131 8.487 20.4231C8.121 20.8401 7.597 21.1111 7 21.1111C5.896 21.1111 5 20.2151 5 19.1111V13.1111C5 12.6701 5.147 12.2661 5.389 11.9351C5.753 11.4381 6.336 11.1111 7 11.1111C8.104 11.1111 9 12.0071 9 13.1111V15.8891C8.939 15.9441 8.891 16.0121 8.834 16.0711Z" fill="#FFDC5D"/>
<path d="M2.06201 22.1111C3.08601 22.1111 3.98701 21.5851 4.51201 20.7891C4.63501 20.9721 4.78301 21.1351 4.94301 21.2861C6.12801 22.4011 7.97701 22.3301 9.11001 21.2001C9.26201 21.0481 9.41301 20.8951 9.52901 20.7121L9.52601 20.7091C9.72701 20.8241 10 21.1111 11 21.1111H13.537C13.167 21.3901 12.829 21.7341 12.513 22.1111C11.285 23.5781 10.5 25.7171 10.5 28.1111C10.5 28.3871 10.724 28.6111 11 28.6111C11.276 28.6111 11.5 28.3871 11.5 28.1111C11.5 25.5631 12.456 23.3361 13.877 22.1111C14.609 21.4801 15.461 21.1111 16.375 21.1111C17.088 21.1901 17.222 20.1111 16.5 20.1111H11C9.89601 20.1111 9.00001 19.2151 9.00001 18.1111C9.00001 17.0071 9.89601 16.1111 11 16.1111H19C19.858 16.1111 20.66 16.7071 20.913 17.5261L22 21.1111C22.103 21.4461 22.479 22.9821 22.411 23.3021C22.411 28.1111 17.715 33.1111 12 33.1111C5.46301 33.1111 0.156008 27.8801 0.0140076 21.3771L0.0280075 21.3871C0.543007 21.8321 1.20401 22.1111 1.93801 22.1111H2.06201Z" fill="#FFDC5D"/>
</svg>
