<?xml version="1.0" standalone="no"?>
<!DOCTYPE svg PUBLIC "-//W3C//DTD SVG 20010904//EN"
 "http://www.w3.org/TR/2001/REC-SVG-20010904/DTD/svg10.dtd">
<svg version="1.0" xmlns="http://www.w3.org/2000/svg"
 width="254.000000pt" height="254.000000pt" viewBox="0 0 254.000000 254.000000"
 preserveAspectRatio="xMidYMid meet">
<metadata>
Created by potrace 1.11, written by Peter Selinger 2001-2013
</metadata>
<g transform="translate(0.000000,254.000000) scale(0.100000,-0.100000)"
fill="#000000" stroke="none">
<path d="M1023 2365 c-37 -58 -117 -181 -178 -273 -60 -93 -155 -237 -210
-322 -121 -186 -178 -271 -223 -329 -57 -75 -121 -221 -137 -312 -3 -18 -8
-36 -11 -41 -3 -5 -7 -57 -9 -116 -10 -354 155 -646 466 -820 51 -28 175 -70
244 -80 60 -10 249 -8 294 2 181 42 311 114 442 245 100 100 137 152 189 264
34 74 46 114 66 227 7 42 7 205 0 240 -22 98 -33 78 159 267 173 170 175 173
175 215 -1 64 -44 108 -107 108 -37 0 -60 -16 -168 -121 -118 -114 -166 -159
-170 -159 -2 0 -20 24 -41 53 -20 28 -48 66 -61 83 l-23 31 91 89 c50 49 95
97 101 108 24 44 1 125 -40 141 -65 26 -99 11 -196 -83 l-75 -73 -56 86 c-30
47 -55 88 -55 91 0 2 71 75 159 162 125 124 159 164 163 188 11 81 -56 140
-136 120 -13 -3 -70 -51 -126 -106 -57 -55 -108 -100 -114 -101 -6 0 -20 -2
-31 -4 -11 -2 -36 0 -56 5 -32 9 -46 27 -137 165 -56 85 -106 155 -112 155 -5
0 -39 -47 -77 -105z"/>
<path d="M1995 2049 c-78 -71 7 -200 105 -159 30 12 60 58 60 90 0 32 -30 78
-59 89 -39 16 -73 9 -106 -20z"/>
</g>
</svg>
